<svg xmlns="http://www.w3.org/2000/svg" viewBox="0 0 512 512" width="512" height="512"><defs><radialGradient id="dmg" cx=".3" cy=".2" r="1"><stop offset="0" stop-color="#2b2f8f"/><stop offset=".6" stop-color="#14164a"/><stop offset="1" stop-color="#0b0c2e"/></radialGradient><linearGradient id="dmp0" x1="0" y1="0" x2="0" y2="1"><stop offset="0" stop-color="#35e0ff"/><stop offset="1" stop-color="#0a8cff"/></linearGradient><linearGradient id="dmp1" x1="0" y1="0" x2="0" y2="1"><stop offset="0" stop-color="#5b7bff"/><stop offset="1" stop-color="#7a3cff"/></linearGradient><linearGradient id="dmp2" x1="0" y1="0" x2="0" y2="1"><stop offset="0" stop-color="#ff5fb8"/><stop offset="1" stop-color="#ff2f7a"/></linearGradient><linearGradient id="dmp3" x1="0" y1="0" x2="0" y2="1"><stop offset="0" stop-color="#ffb52e"/><stop offset="1" stop-color="#ff8a1f"/></linearGradient><linearGradient id="dmp4" x1="0" y1="0" x2="0" y2="1"><stop offset="0" stop-color="#7bf0b0"/><stop offset="1" stop-color="#17c5a0"/></linearGradient><clipPath id="dmc"><circle cx="256" cy="256" r="240"/></clipPath></defs>
<g clip-path="url(#dmc)"><rect width="512" height="512" fill="url(#dmg)"/><g>
<circle cx="256" cy="256" r="196" fill="none" stroke="#fff" stroke-opacity=".16" stroke-width="3"/>
<g transform="rotate(0 256 256)"><path d="M256 172C326 160 336 84 256 40C176 84 186 160 256 172Z" fill="url(#dmp0)"/><path d="M256 172C326 160 336 84 256 40Z" fill="#fff" fill-opacity=".2"/></g><g transform="rotate(72 256 256)"><path d="M256 172C326 160 336 84 256 40C176 84 186 160 256 172Z" fill="url(#dmp1)"/><path d="M256 172C326 160 336 84 256 40Z" fill="#fff" fill-opacity=".2"/></g><g transform="rotate(144 256 256)"><path d="M256 172C326 160 336 84 256 40C176 84 186 160 256 172Z" fill="url(#dmp2)"/><path d="M256 172C326 160 336 84 256 40Z" fill="#fff" fill-opacity=".2"/></g><g transform="rotate(216 256 256)"><path d="M256 172C326 160 336 84 256 40C176 84 186 160 256 172Z" fill="url(#dmp3)"/><path d="M256 172C326 160 336 84 256 40Z" fill="#fff" fill-opacity=".2"/></g><g transform="rotate(288 256 256)"><path d="M256 172C326 160 336 84 256 40C176 84 186 160 256 172Z" fill="url(#dmp4)"/><path d="M256 172C326 160 336 84 256 40Z" fill="#fff" fill-opacity=".2"/></g>
<circle cx="256" cy="256" r="80" fill="#fff"/>
  <g stroke="#14164a" stroke-width="10" stroke-linecap="round" fill="none"><circle cx="222" cy="258" r="30" fill="#35e0ff" fill-opacity=".55"/><circle cx="290" cy="258" r="30" fill="#35e0ff" fill-opacity=".55"/><path d="M251 252q5-8 10 0M193 250l-8-5M319 250l8-5"/></g>
  <path d="M208 248a18 18 0 0 1 12-10M276 248a18 18 0 0 1 12-10" stroke="#fff" stroke-width="6" stroke-linecap="round" fill="none"/>
<g><circle cx="256" cy="60" r="0"/><circle cx="391" cy="141" r="11" fill="#fff"/><circle cx="127" cy="371" r="11" fill="#fff"/><circle cx="391" cy="141" r="22" fill="#fff" opacity=".18"/><circle cx="127" cy="371" r="22" fill="#fff" opacity=".18"/></g>
</g></g></svg>
